<?xml version="1.0" encoding="utf-8"?>
<!-- Generator: Adobe Illustrator 17.0.1, SVG Export Plug-In . SVG Version: 6.00 Build 0)  -->
<!DOCTYPE svg PUBLIC "-//W3C//DTD SVG 1.1//EN" "http://www.w3.org/Graphics/SVG/1.1/DTD/svg11.dtd">
<svg version="1.1" id="Layer_1" xmlns="http://www.w3.org/2000/svg" xmlns:xlink="http://www.w3.org/1999/xlink" x="0px" y="0px"
	 width="119.75px" height="100.75px" viewBox="0 0 119.75 100.75" enable-background="new 0 0 119.75 100.75" xml:space="preserve">
<g>
	<path fill="none" stroke="#F1F1F1" stroke-width="2.132" stroke-miterlimit="10" d="M4.046,85.188V4.998h98.798
		c6.495,0,11.759,5.265,11.759,11.759v80.19H15.806C9.311,96.947,4.046,91.683,4.046,85.188z"/>
	<g>
		
			<image overflow="visible" opacity="0.8" width="132" height="115" xlink:href="1C777242.png"  transform="matrix(1 0 0 1 -4.9521 -6.4521)">
		</image>
		<g>
			<path fill="none" stroke="#F1F1F1" stroke-width="2.132" stroke-miterlimit="10" d="M5.72,85.188V4.998h98.798
				c6.495,0,11.759,5.265,11.759,11.759v80.19H17.48C10.985,96.947,5.72,91.683,5.72,85.188z"/>
		</g>
	</g>
	<g>
		
			<image overflow="visible" opacity="0.4" width="74" height="42" xlink:href="1C777245.png"  transform="matrix(1 0 0 1 6.774 11.274)">
		</image>
		<g>
			<g>
				<path fill="#FFFFFF" d="M37.852,46.917V26.483l-8.808,13.369h-0.179l-8.719-13.235v20.3H13.35V15.618h7.422l8.227,13.235
					l8.227-13.235h7.422v31.299H37.852z"/>
				<path fill="#FFFFFF" d="M52.16,46.917V15.618h23.564v6.126H58.957v6.349h14.755v6.126H58.957v6.573h16.991v6.126H52.16z"/>
			</g>
		</g>
	</g>
	<g>
		
			<image overflow="visible" opacity="0.4" width="69" height="42" xlink:href="1C777247.png"  transform="matrix(1 0 0 1 45.774 50.274)">
		</image>
		<g>
			<g>
				<path fill="#FFFFFF" d="M71.86,85.36V72.796H59.162V85.36h-6.886V54.061h6.886v12.385H71.86V54.061h6.886V85.36H71.86z"/>
				<path fill="#FFFFFF" d="M86.257,85.36V54.061h23.564v6.126H93.054v6.349h14.755v6.126H93.054v6.573h16.991v6.126H86.257z"/>
			</g>
		</g>
	</g>
</g>
</svg>
